<?xml version="1.0" encoding="utf-8"?>
<!DOCTYPE svg PUBLIC "-//W3C//DTD SVG 1.1//EN" "http://www.w3.org/Graphics/SVG/1.1/DTD/svg11.dtd">
<svg version="1.1" id="Layer_1" xmlns="http://www.w3.org/2000/svg" xmlns:xlink="http://www.w3.org/1999/xlink" x="0px" y="0px"
	 width="50px" height="50px" viewBox="0 0 50 50" enable-background="new 0 0 50 50" xml:space="preserve">
<path fill="#5360AA" d="M0.003,25.078L0.003,25.078c0,0,0,0.003,0,0.01c0.007,0.19,0.028,0.375,0.065,0.553
	c0.01,0.085,0.022,0.178,0.035,0.282c0.01,0.09,0.022,0.19,0.035,0.297c0.018,0.125,0.038,0.26,0.06,0.4
	c0.04,0.282,0.088,0.59,0.14,0.925c0.065,0.315,0.138,0.657,0.212,1.018c0.035,0.182,0.088,0.365,0.138,0.557
	c0.05,0.19,0.1,0.385,0.153,0.588c0.028,0.1,0.05,0.203,0.085,0.303c0.035,0.1,0.065,0.203,0.097,0.307
	c0.032,0.103,0.135,0.418,0.203,0.635c0.018,0.053,0.035,0.11,0.053,0.163s0.04,0.107,0.06,0.162
	c0.018,0.057,0.082,0.218,0.122,0.328c0.085,0.218,0.165,0.443,0.253,0.672c0.097,0.222,0.193,0.45,0.293,0.682
	c0.05,0.115,0.1,0.232,0.15,0.347c0.05,0.115,0.11,0.228,0.165,0.347c0.057,0.118,0.228,0.463,0.343,0.7
	c0.122,0.235,0.253,0.465,0.385,0.7c0.065,0.115,0.132,0.235,0.197,0.353s0.14,0.232,0.212,0.35c0.072,0.118,0.29,0.465,0.438,0.7
	c0.618,0.922,1.303,1.835,2.062,2.7c0.765,0.86,1.597,1.672,2.475,2.422c0.887,0.737,1.818,1.412,2.768,2.007
	c0.957,0.587,1.935,1.09,2.9,1.522c0.243,0.1,0.488,0.197,0.725,0.297c0.118,0.047,0.238,0.1,0.36,0.143
	c0.122,0.043,0.24,0.085,0.36,0.128c0.118,0.043,0.472,0.168,0.707,0.243c0.235,0.068,0.468,0.138,0.7,0.207
	c0.115,0.035,0.228,0.068,0.34,0.097c0.113,0.028,0.228,0.057,0.34,0.085c0.113,0.028,0.447,0.11,0.665,0.162
	c0.218,0.043,0.435,0.085,0.647,0.125c0.107,0.018,0.21,0.04,0.315,0.06c0.053,0.01,0.103,0.018,0.153,0.028
	c0.05,0.01,0.103,0.015,0.153,0.022c0.207,0.028,0.407,0.057,0.6,0.085c0.097,0.012,0.193,0.028,0.29,0.04
	c0.097,0.012,0.19,0.018,0.285,0.028c0.093,0.01,0.368,0.032,0.543,0.047c0.175,0.015,0.347,0.035,0.512,0.037
	c0.013,0,0.022,0,0.035,0c0.032,1.7,1.415,3.068,3.125,3.068c0.025,0,0.053,0,0.078-0.003l0,0c0,0,0.003,0,0.012,0
	c0.19-0.007,0.375-0.028,0.553-0.065c0.085-0.01,0.178-0.022,0.282-0.035c0.09-0.01,0.19-0.022,0.297-0.035
	c0.125-0.018,0.26-0.037,0.4-0.06c0.282-0.04,0.59-0.087,0.925-0.14c0.315-0.065,0.657-0.138,1.018-0.213
	c0.182-0.035,0.365-0.087,0.557-0.137c0.19-0.05,0.385-0.103,0.587-0.153c0.1-0.028,0.203-0.05,0.303-0.085s0.203-0.065,0.307-0.097
	c0.103-0.032,0.418-0.135,0.635-0.203c0.053-0.018,0.11-0.035,0.162-0.053c0.052-0.018,0.107-0.04,0.162-0.06
	c0.057-0.018,0.218-0.082,0.328-0.122c0.218-0.085,0.443-0.165,0.672-0.253c0.222-0.097,0.45-0.193,0.682-0.293
	c0.115-0.05,0.232-0.1,0.347-0.15c0.115-0.05,0.228-0.11,0.347-0.165c0.118-0.057,0.463-0.228,0.7-0.343
	c0.235-0.122,0.465-0.253,0.7-0.385c0.115-0.065,0.235-0.132,0.353-0.197s0.232-0.14,0.35-0.213c0.118-0.072,0.465-0.29,0.7-0.438
	c0.922-0.615,1.835-1.303,2.7-2.062c0.86-0.765,1.672-1.597,2.422-2.475c0.737-0.887,1.412-1.818,2.007-2.768
	c0.588-0.957,1.09-1.935,1.522-2.9c0.1-0.243,0.197-0.488,0.297-0.725c0.047-0.118,0.1-0.237,0.143-0.36
	c0.043-0.122,0.085-0.24,0.125-0.36c0.04-0.118,0.168-0.472,0.243-0.707c0.068-0.235,0.137-0.468,0.207-0.7
	c0.035-0.115,0.068-0.228,0.097-0.34c0.028-0.113,0.057-0.228,0.085-0.34c0.028-0.112,0.11-0.447,0.162-0.665
	c0.043-0.218,0.085-0.435,0.125-0.647c0.018-0.107,0.04-0.21,0.06-0.315c0.01-0.053,0.018-0.103,0.028-0.153
	c0.01-0.05,0.015-0.103,0.022-0.157c0.028-0.203,0.057-0.407,0.085-0.6c0.012-0.097,0.028-0.193,0.04-0.29
	c0.012-0.097,0.018-0.19,0.028-0.285c0.01-0.093,0.032-0.368,0.047-0.543c0.015-0.175,0.035-0.347,0.037-0.515
	c0-0.025,0.003-0.05,0.003-0.078c1.718-0.007,3.112-1.403,3.112-3.125c0-0.025,0-0.053-0.003-0.078l0,0c0,0,0-0.003,0-0.01
	c-0.007-0.19-0.028-0.375-0.065-0.553c-0.01-0.085-0.022-0.178-0.035-0.282c-0.01-0.09-0.022-0.19-0.035-0.297
	c-0.018-0.125-0.037-0.26-0.06-0.4c-0.04-0.282-0.087-0.59-0.14-0.925c-0.065-0.315-0.138-0.657-0.213-1.018
	c-0.035-0.182-0.087-0.365-0.137-0.557c-0.05-0.19-0.1-0.385-0.153-0.587c-0.028-0.1-0.05-0.203-0.085-0.303
	s-0.065-0.203-0.097-0.307c-0.032-0.103-0.135-0.418-0.203-0.635c-0.015-0.053-0.035-0.11-0.053-0.163
	c-0.018-0.053-0.04-0.107-0.06-0.162c-0.02-0.055-0.082-0.218-0.122-0.328c-0.085-0.218-0.165-0.443-0.253-0.672
	C48.197,17.5,48.1,17.272,48,17.04c-0.05-0.115-0.1-0.232-0.15-0.347c-0.05-0.115-0.11-0.228-0.165-0.347
	c-0.055-0.118-0.228-0.463-0.343-0.7c-0.122-0.235-0.253-0.465-0.385-0.7c-0.065-0.115-0.132-0.235-0.197-0.353
	c-0.065-0.118-0.14-0.232-0.213-0.35c-0.072-0.118-0.29-0.465-0.438-0.7c-0.615-0.922-1.303-1.835-2.062-2.7
	c-0.765-0.86-1.597-1.672-2.475-2.422c-0.887-0.738-1.818-1.412-2.768-2.007c-0.957-0.587-1.935-1.09-2.9-1.522
	c-0.243-0.1-0.488-0.197-0.725-0.297c-0.118-0.047-0.237-0.1-0.36-0.143c-0.122-0.043-0.24-0.085-0.36-0.125
	c-0.118-0.04-0.472-0.168-0.707-0.243c-0.235-0.068-0.468-0.137-0.7-0.207c-0.115-0.032-0.228-0.068-0.34-0.097
	c-0.113-0.028-0.228-0.057-0.34-0.085s-0.447-0.11-0.665-0.163c-0.218-0.043-0.435-0.085-0.647-0.125
	c-0.107-0.018-0.21-0.04-0.315-0.06c-0.053-0.01-0.103-0.018-0.153-0.028c-0.05-0.01-0.103-0.015-0.153-0.022
	c-0.207-0.028-0.407-0.057-0.6-0.085c-0.097-0.012-0.193-0.028-0.29-0.04c-0.097-0.013-0.19-0.018-0.285-0.028
	c-0.093-0.01-0.368-0.032-0.543-0.047c-0.175-0.015-0.347-0.035-0.512-0.038c-0.04,0-0.082-0.003-0.122-0.003
	c-0.032-1.697-1.418-3.065-3.122-3.065c-0.025,0-0.053,0-0.078,0.003l0,0c0,0-0.003,0-0.01,0c-0.19,0.007-0.375,0.028-0.553,0.065
	c-0.085,0.01-0.178,0.022-0.282,0.035c-0.09,0.01-0.19,0.022-0.297,0.035c-0.125,0.018-0.26,0.038-0.4,0.06
	c-0.282,0.04-0.59,0.088-0.925,0.14c-0.315,0.065-0.657,0.137-1.018,0.212C21.22,0.577,21.037,0.63,20.845,0.68
	c-0.19,0.05-0.385,0.103-0.587,0.153c-0.1,0.028-0.203,0.05-0.303,0.085c-0.1,0.035-0.203,0.065-0.307,0.097
	c-0.103,0.032-0.418,0.135-0.635,0.203c-0.053,0.018-0.11,0.035-0.163,0.053c-0.053,0.018-0.107,0.04-0.162,0.06
	C18.632,1.35,18.47,1.413,18.36,1.453c-0.218,0.085-0.443,0.165-0.672,0.253C17.467,1.803,17.238,1.9,17.007,2
	c-0.115,0.05-0.232,0.1-0.347,0.15c-0.11,0.05-0.223,0.11-0.342,0.165c-0.118,0.057-0.462,0.228-0.7,0.345
	c-0.235,0.122-0.465,0.253-0.7,0.385c-0.115,0.065-0.233,0.13-0.353,0.195c-0.12,0.065-0.232,0.14-0.35,0.213
	c-0.118,0.072-0.465,0.29-0.7,0.437c-0.922,0.618-1.835,1.303-2.7,2.063C9.957,6.718,9.143,7.55,8.393,8.428
	c-0.737,0.887-1.412,1.818-2.007,2.768c-0.587,0.957-1.09,1.935-1.522,2.9c-0.1,0.243-0.197,0.487-0.297,0.725
	c-0.047,0.118-0.1,0.237-0.143,0.36C4.382,15.303,4.34,15.422,4.3,15.54c-0.04,0.12-0.168,0.473-0.243,0.707
	c-0.068,0.235-0.137,0.468-0.207,0.7c-0.035,0.115-0.068,0.228-0.1,0.34c-0.032,0.113-0.057,0.228-0.085,0.34
	c-0.028,0.113-0.11,0.447-0.163,0.665c-0.043,0.218-0.085,0.435-0.125,0.647c-0.018,0.107-0.04,0.21-0.06,0.315
	c-0.01,0.053-0.018,0.103-0.028,0.153s-0.015,0.103-0.022,0.157c-0.028,0.203-0.057,0.407-0.085,0.6
	c-0.012,0.097-0.028,0.193-0.04,0.29c-0.013,0.097-0.018,0.19-0.028,0.285c-0.01,0.093-0.032,0.368-0.047,0.543
	c-0.015,0.175-0.035,0.347-0.038,0.515c0,0.028-0.003,0.053-0.003,0.078C1.35,21.932,0.007,23.31,0.007,25
	c0,0.025,0,0.053,0.003,0.078H0.003z M3.59,21.91c0.003-0.01,0.003-0.018,0.007-0.028c0.032-0.16,0.082-0.318,0.125-0.485
	c0.043-0.167,0.093-0.335,0.14-0.51c0.025-0.087,0.047-0.175,0.075-0.263c0.028-0.088,0.06-0.178,0.088-0.268
	c0.028-0.09,0.118-0.363,0.182-0.55c0.015-0.047,0.032-0.093,0.047-0.14c0.015-0.047,0.038-0.093,0.053-0.14
	c0.015-0.047,0.072-0.188,0.11-0.285c0.038-0.097,0.15-0.385,0.228-0.582c0.088-0.193,0.175-0.39,0.263-0.59
	c0.043-0.1,0.088-0.2,0.135-0.3c0.047-0.1,0.1-0.2,0.15-0.3c0.05-0.1,0.203-0.4,0.307-0.607c0.107-0.203,0.228-0.4,0.34-0.607
	c0.057-0.1,0.115-0.203,0.175-0.307c0.06-0.103,0.125-0.2,0.19-0.3c0.128-0.2,0.257-0.403,0.388-0.607
	c0.55-0.797,1.153-1.582,1.822-2.325c0.678-0.738,1.41-1.435,2.178-2.078c0.782-0.632,1.597-1.203,2.425-1.71
	c0.835-0.493,1.688-0.917,2.522-1.278c0.212-0.085,0.422-0.165,0.632-0.247c0.103-0.04,0.207-0.085,0.31-0.118
	c0.103-0.035,0.21-0.068,0.313-0.103c0.103-0.035,0.41-0.14,0.613-0.203c0.203-0.057,0.407-0.113,0.607-0.168
	c0.1-0.028,0.197-0.06,0.297-0.082c0.1-0.022,0.197-0.043,0.293-0.065c0.097-0.022,0.385-0.088,0.575-0.132
	c0.19-0.035,0.375-0.065,0.56-0.1c0.09-0.015,0.182-0.032,0.272-0.047c0.043-0.01,0.09-0.015,0.135-0.025
	c0.045-0.01,0.09-0.01,0.135-0.015c0.175-0.022,0.35-0.043,0.518-0.062c0.085-0.01,0.165-0.022,0.25-0.032
	c0.085-0.01,0.165-0.012,0.243-0.018s0.318-0.022,0.468-0.035c0.153-0.01,0.297-0.025,0.443-0.025
	c0.285-0.007,0.553-0.012,0.8-0.018c0.228,0.01,0.437,0.015,0.625,0.022c0.093,0.003,0.182,0.007,0.265,0.007
	c0.103,0.007,0.2,0.012,0.29,0.018c0.103,0.007,0.197,0.012,0.285,0.018c0.16,0.025,0.322,0.037,0.488,0.037
	c0.022,0,0.047,0,0.068-0.003c0.007,0,0.012,0,0.012,0l0,0c1.522-0.038,2.772-1.162,3.007-2.625
	c0.025,0.007,0.053,0.012,0.078,0.018c0.16,0.032,0.318,0.082,0.485,0.125c0.165,0.043,0.335,0.093,0.51,0.14
	c0.087,0.025,0.175,0.047,0.262,0.075c0.087,0.028,0.178,0.06,0.268,0.087c0.09,0.028,0.363,0.118,0.55,0.182
	c0.047,0.015,0.093,0.032,0.14,0.047c0.047,0.015,0.093,0.038,0.14,0.053c0.047,0.015,0.188,0.072,0.285,0.11
	c0.097,0.037,0.385,0.15,0.582,0.228c0.193,0.088,0.39,0.175,0.59,0.263c0.1,0.043,0.2,0.088,0.3,0.135c0.1,0.047,0.2,0.1,0.3,0.15
	c0.1,0.05,0.4,0.203,0.607,0.307c0.203,0.107,0.403,0.228,0.607,0.34c0.1,0.057,0.203,0.115,0.307,0.175
	c0.103,0.06,0.2,0.125,0.3,0.19s0.403,0.257,0.607,0.388c0.797,0.55,1.582,1.153,2.325,1.822c0.738,0.678,1.435,1.41,2.078,2.178
	c0.632,0.782,1.203,1.597,1.71,2.425c0.497,0.838,0.918,1.69,1.282,2.525c0.085,0.212,0.165,0.422,0.247,0.632
	c0.04,0.103,0.085,0.207,0.118,0.31c0.035,0.103,0.068,0.21,0.103,0.313s0.14,0.41,0.203,0.613c0.057,0.203,0.113,0.407,0.168,0.607
	c0.028,0.1,0.06,0.197,0.082,0.297c0.022,0.1,0.043,0.197,0.065,0.293s0.087,0.385,0.132,0.575c0.035,0.19,0.065,0.375,0.1,0.56
	c0.015,0.09,0.032,0.182,0.047,0.272c0.01,0.043,0.015,0.09,0.025,0.135c0.01,0.043,0.01,0.09,0.015,0.135
	c0.022,0.175,0.043,0.35,0.063,0.518c0.01,0.085,0.022,0.165,0.032,0.25c0.01,0.085,0.012,0.165,0.018,0.243
	c0.007,0.078,0.022,0.318,0.035,0.468c0.01,0.153,0.025,0.297,0.025,0.443c0.007,0.285,0.012,0.553,0.018,0.8
	c-0.01,0.228-0.015,0.437-0.022,0.625c-0.003,0.093-0.007,0.182-0.007,0.265c-0.007,0.103-0.012,0.2-0.018,0.29
	c-0.007,0.103-0.012,0.197-0.018,0.285c-0.025,0.16-0.037,0.322-0.037,0.488c0,0.022,0,0.047,0.003,0.068c0,0.007,0,0.012,0,0.012
	l0,0c0.038,1.503,1.135,2.74,2.572,2.997c-0.003,0.015-0.007,0.028-0.01,0.043c-0.032,0.16-0.078,0.318-0.125,0.485
	c-0.047,0.165-0.093,0.335-0.14,0.51c-0.025,0.087-0.047,0.175-0.075,0.262c-0.028,0.087-0.06,0.178-0.087,0.268
	s-0.122,0.363-0.182,0.55c-0.015,0.047-0.032,0.093-0.047,0.14c-0.015,0.047-0.037,0.093-0.053,0.14
	c-0.015,0.047-0.072,0.188-0.11,0.285c-0.038,0.097-0.15,0.385-0.228,0.582c-0.087,0.193-0.175,0.39-0.262,0.59
	c-0.043,0.1-0.087,0.2-0.135,0.3s-0.1,0.2-0.15,0.3c-0.05,0.1-0.203,0.4-0.307,0.607c-0.107,0.203-0.228,0.403-0.34,0.607
	c-0.057,0.1-0.115,0.203-0.175,0.307c-0.06,0.103-0.125,0.2-0.19,0.3s-0.257,0.403-0.388,0.607c-0.55,0.797-1.153,1.582-1.822,2.325
	c-0.678,0.738-1.41,1.435-2.178,2.078c-0.782,0.632-1.597,1.203-2.425,1.71c-0.837,0.497-1.69,0.918-2.525,1.282
	c-0.213,0.085-0.422,0.165-0.632,0.247c-0.103,0.04-0.207,0.085-0.31,0.118c-0.103,0.035-0.21,0.068-0.313,0.103
	s-0.41,0.14-0.613,0.203c-0.203,0.057-0.407,0.112-0.607,0.168c-0.1,0.028-0.197,0.06-0.297,0.082s-0.197,0.043-0.293,0.065
	c-0.097,0.022-0.385,0.087-0.575,0.132c-0.19,0.035-0.375,0.065-0.56,0.1c-0.09,0.015-0.182,0.032-0.272,0.047
	c-0.043,0.01-0.088,0.015-0.135,0.025c-0.047,0.01-0.09,0.01-0.135,0.015c-0.175,0.022-0.35,0.043-0.518,0.063
	c-0.085,0.01-0.165,0.022-0.25,0.032c-0.085,0.01-0.165,0.012-0.243,0.018c-0.078,0.007-0.318,0.022-0.468,0.035
	c-0.153,0.01-0.297,0.025-0.443,0.025c-0.285,0.007-0.553,0.012-0.8,0.018c-0.228-0.01-0.438-0.015-0.625-0.022
	c-0.093-0.003-0.182-0.007-0.265-0.007c-0.103-0.007-0.2-0.012-0.29-0.018c-0.103-0.007-0.197-0.012-0.285-0.018
	c-0.16-0.025-0.322-0.037-0.488-0.037c-0.022,0-0.047,0-0.068,0.003c-0.007,0-0.01,0-0.01,0l0,0
	c-1.513,0.038-2.76,1.153-3.003,2.607c-0.157-0.032-0.315-0.078-0.478-0.122c-0.162-0.043-0.335-0.093-0.51-0.14
	c-0.087-0.025-0.175-0.047-0.263-0.075c-0.088-0.028-0.178-0.06-0.268-0.087c-0.09-0.027-0.363-0.122-0.55-0.182
	c-0.047-0.015-0.093-0.032-0.14-0.047c-0.047-0.015-0.093-0.037-0.14-0.053c-0.047-0.015-0.188-0.072-0.285-0.11
	c-0.097-0.038-0.385-0.15-0.582-0.228c-0.193-0.087-0.39-0.175-0.59-0.262c-0.1-0.043-0.2-0.087-0.3-0.135
	c-0.1-0.047-0.2-0.1-0.3-0.15c-0.1-0.05-0.4-0.203-0.607-0.307c-0.203-0.107-0.403-0.228-0.607-0.34
	c-0.1-0.057-0.203-0.115-0.307-0.175c-0.103-0.06-0.2-0.125-0.3-0.19c-0.2-0.128-0.403-0.257-0.607-0.388
	c-0.797-0.547-1.582-1.153-2.325-1.822c-0.738-0.678-1.435-1.41-2.078-2.178c-0.632-0.782-1.203-1.597-1.71-2.425
	c-0.497-0.837-0.918-1.69-1.282-2.525C7.562,34.21,7.482,34,7.4,33.79c-0.04-0.103-0.085-0.207-0.118-0.31
	c-0.035-0.103-0.068-0.21-0.103-0.313c-0.035-0.103-0.14-0.41-0.203-0.613c-0.057-0.203-0.113-0.407-0.168-0.607
	c-0.028-0.1-0.06-0.197-0.082-0.297c-0.022-0.1-0.043-0.197-0.065-0.293s-0.088-0.385-0.132-0.575c-0.035-0.19-0.065-0.375-0.1-0.56
	c-0.015-0.09-0.032-0.182-0.047-0.272c-0.01-0.043-0.015-0.088-0.025-0.135c-0.01-0.047-0.01-0.09-0.015-0.135
	c-0.022-0.175-0.043-0.35-0.062-0.518c-0.01-0.085-0.022-0.165-0.032-0.25c-0.01-0.085-0.012-0.165-0.018-0.243
	C6.223,28.59,6.208,28.353,6.195,28.2c-0.01-0.153-0.025-0.297-0.025-0.443c-0.007-0.285-0.012-0.553-0.018-0.8
	c0.01-0.228,0.015-0.438,0.022-0.625c0.003-0.093,0.007-0.182,0.007-0.265c0.007-0.103,0.012-0.2,0.018-0.29
	c0.007-0.103,0.012-0.197,0.018-0.285c0.025-0.16,0.038-0.322,0.038-0.488c0-0.022,0-0.047-0.003-0.068c0-0.007,0-0.01,0-0.01l0,0
	c-0.037-1.532-1.178-2.79-2.66-3.012L3.59,21.91z"/>
</svg>
